<svg xmlns="http://www.w3.org/2000/svg" viewBox="0 0 250 250">
	<path
		d="M209.82 4.76c6.89-2.17 14.1-3.64 21.35-3.39-3.84 5.25-10.98 5.94-15.65 10.18-3.46 3.21-6.81 6.64-9.42 10.59-5.7 9.12-8.51 19.69-14.2 28.81-5.78 9.3-13.58 17.08-20.24 25.72-1.45 1.98-3.04 3.99-3.69 6.4-.34 3.05.6 6.05.74 9.08l.05 2.13c-4.95-4.04-9.21-8.86-14.4-12.62-2.88-2.07-5.77-4.39-7.25-7.71-1.9-3.22-3.03-7.96-7.28-8.75-7.22-1.55-14.52.8-21.8.47-5.74.22-12.08-.92-17.31 2-3.97 3.64-4.81 9.54-8.84 13.18-4.53 4.17-9.48 7.88-14.38 11.6l-.4-3.44c-.32-3.18-1.1-6.41-3.14-8.96-7.28-9.66-17.82-16.31-25.03-26.03-4.49-7.25-4.69-16.16-8.06-23.89-3.43-8.09-7.86-16.86-16.25-20.71-3.78-2.02-8.23-3.37-10.79-7.05 7.25-.25 14.46 1.22 21.35 3.39 4.92 1.55 9.31 4.48 12.81 8.24 7.79 8.3 14.09 17.87 21.73 26.29 5.96 5.31 12.47 10.13 19.88 13.24 8.95 4.94 19.27 6.73 29.41 6.51 7.76-.21 15.79.74 23.3-1.71 7.83-2.72 13.95-8.6 19.6-14.44 6.63-6.79 15.51-11.01 21.55-18.43 2.99-3.67 6.31-7.06 10-10.04 5.05-4.09 10-8.71 16.36-10.66zM114.1 113.84c3.61.62 6.75 2.57 9.89 4.33 3.14-1.78 6.28-3.72 9.89-4.33 2.06 6.59 5.3 13.45 3.39 20.49-2.87 4.34-7.31 7.39-11.21 10.75-2.15 2.25-4.57-.47-6.31-1.81-3.09-2.86-6.82-5.26-8.95-8.97-2.1-7.03 1.49-13.81 3.3-20.46zm-58.06 2.13c6.37 2.83 11.79 7.51 16.26 12.8 1.35 1.43 1.52 3.44 1.82 5.29-9.66.14-18.59-8.24-18.08-18.09zm128.03 5.08c2.71-1.94 5.49-4.35 9.03-4.32.01 9.08-8.75 16.15-17.31 17.1-1.4-5.95 4.39-9.51 8.28-12.78zm-71.88 31.12c5.66-1.78 11.7-2.26 17.6-1.7 6.43.65 12.07 4.59 16.22 9.36-7.22 2.36-14.22 6.39-22.05 5.95-6.67.14-12.78-3.25-18.1-6.95 1.17-2.88 3.21-5.73 6.33-6.66z"
		fill="#735141" />
	<path
		d="M118.03 65.67c7.28.33 14.58-2.02 21.8-.47 4.25.79 5.38 5.53 7.28 8.75 1.48 3.32 4.37 5.64 7.25 7.71 5.19 3.76 9.45 8.58 14.4 12.62 4.83 4.66 12.1 4.35 18.3 3.78 8.88-.73 17.18-5.71 26.26-4.12-1.24 1.55-2.55 3.07-4.17 4.23-8.33 6.01-18.2 9.44-26.49 15.52-8.35 6.22-12.61 16.36-14.92 26.22-1.34 5.2-1.8 11.08-5.69 15.16-5.87 6.19-13.54 10.4-19.08 16.94-2.96 3.37-6.09 7.07-10.6 8.29-4.66 1.19-9.59 1.42-14.34.76-4.55-.71-6.87-5.21-9.85-8.19-6.43-7.67-15.54-12.48-21.92-20.16-6.32-8.02-4.82-19.25-10.33-27.66-5.93-9.38-15.17-16.08-24.91-21.1-5.79-3.07-12.4-5.47-16.36-11.01 6.19-.98 12.22 1.13 18.37 1.33 4.98.23 9.96.18 14.94.11 3.24-.12 6.7-.12 9.53-1.93 4.9-3.72 9.85-7.43 14.38-11.6 4.03-3.64 4.87-9.54 8.84-13.18 5.23-2.92 11.57-1.78 17.31-2m34.74 31.09c-4.84 5.32-12.49 8.51-14.11 16.21 2.22 2.38 5.01 4.66 8.42 4.77 4.72.14 9.24-1.97 13.04-4.61 4.45-3.14 5.68-9.01 5.27-14.14-.33-3.91-4.29-7.47-8.3-6.25-1.63 1.12-2.94 2.63-4.32 4.02m-74.95 4.16c2.79 8.98 11.12 15.94 20.23 17.78 4.61 1.2 7.32-3.37 9.4-6.63-2.18-4.17-6.05-6.97-9.24-10.3-4.04-3.81-9.05-7.99-14.98-7.42-3.02.44-6.85 3.06-5.41 6.57m36.28 12.92c-1.81 6.65-5.4 13.43-3.3 20.46 2.13 3.71 5.86 6.11 8.95 8.97 1.74 1.34 4.16 4.06 6.31 1.81 3.9-3.36 8.34-6.41 11.21-10.75 1.91-7.04-1.33-13.9-3.39-20.49-3.61.61-6.75 2.55-9.89 4.33-3.14-1.76-6.28-3.71-9.89-4.33m-1.91 38.33c-3.12.93-5.16 3.78-6.33 6.66 5.32 3.7 11.43 7.09 18.1 6.95 7.83.44 14.83-3.59 22.05-5.95-4.15-4.77-9.79-8.71-16.22-9.36-5.9-.56-11.94-.08-17.6 1.7zm46.15 25.22c2.66-8.12 4.5-17.94 12.52-22.6.74 4.36.84 8.78 1.03 13.19.45 10.5 2.72 21.08 7.73 30.39 2.99 5.62 5.65 11.48 6.72 17.8l-49.1 28.43c-1.64-7.43-.74-15.06-.98-22.59.05-4.78-.52-9.8 1.41-14.32 4.77-11.51 17-18.17 20.67-30.3zm-78.08-20.56c7.52 8.48 10.21 19.98 16.93 29.01 5.08 7.16 13.12 11.63 17.93 19.01 3.45 5.37 3.63 11.96 3.76 18.13.04 7.38.13 14.79-.89 22.12-2.08.16-4.16.36-6.24.43l-41.04-23.32c-.03-9.13-.51-18.48 2.13-27.33 3.74-12.39 6.36-25.15 7.42-38.05z"
		fill="#e4dfd1" />
	<path
		d="M208.39 88.39c10.26-2.56 20.49-5.45 31.02-6.69.53 6.12-3.34 11.21-7.53 15.18-5.77 5.58-11.14 11.74-18.05 15.97-4.04 2.75-8.7 4.45-12.65 7.34-5.22 4.37-6.75 11.63-11.85 16.13-3.53 3.34-8.33 4.89-11.9 8.16-1.31 4.33-.83 8.97-1.11 13.44.06 7.56-.61 15.18.24 22.7 2.74 11.04 11.96 19.31 14.21 30.53.77 2.74-2.67 3.78-4.43 5.02-1.07-6.32-3.73-12.18-6.72-17.8-5.01-9.31-7.28-19.89-7.73-30.39-.19-4.41-.29-8.83-1.03-13.19-8.02 4.66-9.86 14.48-12.52 22.6-3.67 12.13-15.9 18.79-20.67 30.3-1.93 4.52-1.36 9.54-1.41 14.32.24 7.53-.66 15.16.98 22.59-2.56 1.8-4.95 3.83-7.66 5.4h-12.26c-1.84-1.51-3.67-3.05-5.57-4.47 2.08-.07 4.16-.27 6.24-.43 1.02-7.33.93-14.74.89-22.12-.13-6.17-.31-12.76-3.76-18.13-4.81-7.38-12.85-11.85-17.93-19.01-6.72-9.03-9.41-20.53-16.93-29.01-1.06 12.9-3.68 25.66-7.42 38.05-2.64 8.85-2.16 18.2-2.13 27.33-3.2-1.63-6.82-3.13-8.74-6.36-.32-2.72.21-5.44.76-8.1 2.03-8.82 4.96-17.42 6.74-26.31 2.32-10.98 3.38-22.26 2.81-33.47-.27-1.35-.05-3.1-1.23-4.04-3.51-2.92-8.07-4.37-11.24-7.74-4.62-4.71-5.79-11.8-10.73-16.23-4.84-4.05-11.29-5.73-15.78-10.26-4.2-4.23-7.08-9.54-11-14.01-3.59-4.44-8.35-7.8-11.58-12.53 6.64-.16 13.27.74 19.68 2.42 6.81 1.74 13.5 4.25 20.59 4.58 8.7.36 17.54.76 26.11-1.15l.4 3.44c-2.83 1.81-6.29 1.81-9.53 1.93-4.98.07-9.96.12-14.94-.11-6.15-.2-12.18-2.31-18.37-1.33 3.96 5.54 10.57 7.94 16.36 11.01 9.74 5.02 18.98 11.72 24.91 21.1 5.51 8.41 4.01 19.64 10.33 27.66 6.38 7.68 15.49 12.49 21.92 20.16 2.98 2.98 5.3 7.48 9.85 8.19 4.75.66 9.68.43 14.34-.76 4.51-1.22 7.64-4.92 10.6-8.29 5.54-6.54 13.21-10.75 19.08-16.94 3.89-4.08 4.35-9.96 5.69-15.16 2.31-9.86 6.57-20 14.92-26.22 8.29-6.08 18.16-9.51 26.49-15.52 1.62-1.16 2.93-2.68 4.17-4.23-9.08-1.59-17.38 3.39-26.26 4.12-6.2.57-13.47.88-18.3-3.78l-.05-2.13c6.44.32 12.88 1.26 19.33.7 6.95-.59 13.61-2.79 20.35-4.46M56.04 115.97c-.51 9.85 8.42 18.23 18.08 18.09-.3-1.85-.47-3.86-1.82-5.29-4.47-5.29-9.89-9.97-16.26-12.8m128.03 5.08c-3.89 3.27-9.68 6.83-8.28 12.78 8.56-.95 17.32-8.02 17.31-17.1-3.54-.03-6.32 2.38-9.03 4.32zm-31.3-24.29c1.38-1.39 2.69-2.9 4.32-4.02 4.01-1.22 7.97 2.34 8.3 6.25.41 5.13-.82 11-5.27 14.14-3.8 2.64-8.32 4.75-13.04 4.61-3.41-.11-6.2-2.39-8.42-4.77 1.62-7.7 9.27-10.89 14.11-16.21zm-74.95 4.16c-1.44-3.51 2.39-6.13 5.41-6.57 5.93-.57 10.94 3.61 14.98 7.42 3.19 3.33 7.06 6.13 9.24 10.3-2.08 3.26-4.79 7.83-9.4 6.63-9.11-1.84-17.44-8.8-20.23-17.78z"
		fill="#0c0b09" />
</svg>
